<svg width="19" height="22" viewBox="0 0 19 22" fill="none" xmlns="http://www.w3.org/2000/svg">
<g clip-path="url(#clip0_5_664)">
<path d="M9.50002 0.0222915C7.24161 0.0222915 3.07728 0.589816 0.956544 1.78765C-1.83562 11.4029 1.96171 17.9414 9.50002 21.6526C17.0384 17.9414 20.8357 11.3705 18.0435 1.7877C15.9206 0.589816 11.7584 0.0222915 9.50002 0.0222915Z" fill="#9C824A" stroke="#9C824A" stroke-width="0.13621" stroke-miterlimit="282"/>
<path d="M9.50006 0.64077C7.28132 0.64077 4.78312 0.916428 1.51126 2.21356C-0.924361 10.6066 1.90123 17.3337 9.50006 21.0002C17.0989 17.3337 19.9224 10.6066 17.4868 2.21356C14.2149 0.916428 11.7188 0.64077 9.50006 0.64077Z" fill="#023474" stroke="#023474" stroke-width="0.13621" stroke-miterlimit="282"/>
<path d="M9.48969 0.632701C7.28134 0.632701 4.91035 0.950878 2.77081 1.73733C0.552064 10.3311 2.18905 16.6061 9.5022 20.9942L9.48969 0.632701ZM9.5022 20.9942C16.8153 16.6061 18.4502 10.3311 16.2314 1.73733C14.0919 0.950878 11.723 0.632701 9.51472 0.632701L9.5022 20.9942Z" fill="white" stroke="white" stroke-width="0.13621" stroke-miterlimit="282"/>
<path d="M9.50215 0.630692C7.28128 0.630692 5.03333 0.956973 3.20662 1.57512C0.908606 10.5824 2.75407 16.6648 9.5042 20.8218L9.50215 0.630692Z" fill="#EF0107" stroke="#EF0107" stroke-width="0.13621" stroke-miterlimit="282"/>
<path d="M9.50633 0.630692C11.7271 0.630692 13.9751 0.956973 15.8039 1.57512C18.1019 10.5824 16.2564 16.6648 9.50427 20.8218L9.50633 0.630692Z" fill="#DB0007" stroke="#DB0007" stroke-width="0.13621" stroke-miterlimit="282"/>
<path d="M6.6328 14.2225C5.65272 14.8752 4.87283 15.1103 3.96779 15.3434L3.42146 14.5185C4.25353 14.1091 5.11474 13.5395 5.98223 12.7147C6.05521 13.5151 6.43884 14.0826 6.6328 14.2225Z" fill="white"/>
<path d="M6.49927 14.1881C5.56925 14.8083 4.27423 15.24 2.7916 15.4508L2.48924 15.0049C3.75916 14.5427 4.98532 13.8537 5.93625 12.8849C6.08015 13.505 6.29908 13.9165 6.49927 14.1881Z" fill="#9C824A"/>
<path d="M4.02203 10.4C4.02203 10.7466 3.73429 11.0263 3.37769 11.0263C3.02109 11.0263 2.73124 10.7466 2.73124 10.4C2.73124 10.0534 3.02109 9.77371 3.37769 9.77371C3.73429 9.77371 4.02203 10.0534 4.02203 10.4Z" fill="white"/>
<path d="M3.95313 9.16557V11.5289H5.86951C5.9946 10.7364 6.45755 9.89523 7.50644 9.16557H3.95313Z" fill="white"/>
<path d="M4.03035 11.5289C3.60283 11.5349 3.25046 11.014 3.24417 10.3614C3.24 9.70872 3.58203 9.17367 4.0116 9.16557C4.01578 9.16557 4.01995 9.16557 4.02623 9.16557" fill="white"/>
<path d="M3.75086 10.3999C3.75086 10.6675 3.55067 10.8823 3.3046 10.8823C3.05852 10.8823 2.85833 10.6675 2.85833 10.3999C2.85833 10.1324 3.05852 9.91754 3.3046 9.91754C3.55067 9.91748 3.75086 10.1324 3.75086 10.3999Z" fill="#9C824A"/>
<path d="M4.00537 9.2893V11.4134H5.90718C6.0573 10.7081 6.42642 9.95813 7.34809 9.2893H4.00537Z" fill="#9C824A"/>
<path d="M4.07616 11.4133C3.67367 11.4215 3.34421 10.9513 3.33798 10.3655C3.33381 9.77978 3.65704 9.29735 4.05947 9.2893C4.06364 9.2893 4.06781 9.2893 4.07199 9.2893" fill="#9C824A"/>
<path d="M13.1388 12.0822C13.1388 14.0544 11.4957 15.6515 9.46664 15.6515C7.43974 15.6515 5.79447 14.0544 5.79447 12.0822C5.79447 10.1102 7.43974 8.51299 9.46664 8.51299C11.4957 8.51299 13.1388 10.1102 13.1388 12.0822Z" fill="white"/>
<path d="M12.9472 12.0822C12.9472 13.9509 11.3894 15.4649 9.46677 15.4649C7.54622 15.4649 5.9885 13.9509 5.9885 12.0822C5.9885 10.2155 7.54622 8.69945 9.46677 8.69945C11.3894 8.6994 12.9472 10.2135 12.9472 12.0822Z" fill="#9C824A"/>
<path d="M12.3694 12.0822C12.3694 13.6408 11.0702 14.9036 9.46669 14.9036C7.8652 14.9036 6.56606 13.6408 6.56606 12.0822C6.56606 10.5235 7.8652 9.26082 9.46669 9.26082C11.0702 9.26082 12.3694 10.5235 12.3694 12.0822Z" fill="white"/>
<path d="M12.1776 12.0822C12.1776 13.5374 10.9639 14.715 9.46662 14.715C7.97147 14.715 6.75783 13.5374 6.75783 12.0822C6.75783 10.627 7.97147 9.44939 9.46662 9.44939C10.9639 9.44933 12.1776 10.627 12.1776 12.0822Z" fill="#9C824A"/>
<path d="M10.5969 12.0822C10.599 12.6882 10.0923 13.1807 9.46877 13.1827C8.84323 13.1827 8.33645 12.6903 8.33645 12.0842V12.0822C8.33645 11.4761 8.84112 10.9836 9.46665 10.9836C10.0901 10.9816 10.5969 11.4742 10.5969 12.0802C10.5969 12.0822 10.5969 12.0822 10.5969 12.0822Z" fill="white"/>
<path d="M10.4634 12.0822C10.4634 12.6174 10.0191 13.0511 9.4687 13.0511C8.9182 13.0511 8.47194 12.6194 8.46982 12.0843V12.0823C8.46982 11.5472 8.91608 11.1134 9.46658 11.1134C10.0171 11.1134 10.4634 11.5452 10.4634 12.0802V12.0822Z" fill="#9C824A"/>
<path d="M9.97981 12.0822C9.97981 12.3558 9.75042 12.5787 9.46686 12.5807C9.18535 12.5807 8.95596 12.3579 8.95596 12.0822C8.95596 11.8066 9.18535 11.5857 9.46686 11.5837C9.75037 11.5836 9.97981 11.8066 9.97981 12.0822Z" fill="white"/>
<path d="M9.8379 12.0822C9.8379 12.2808 9.67314 12.4429 9.46672 12.4429C9.26236 12.4429 9.09555 12.2828 9.09555 12.0822C9.09555 11.8836 9.26236 11.7215 9.46672 11.7215C9.67102 11.7214 9.8379 11.8815 9.8379 12.0822Z" fill="#9C824A"/>
<path d="M9.84826 9.38854H9.07671V11.1376H9.84826V9.38854Z" fill="white"/>
<path d="M9.72941 9.13721H9.19771V11.3606H9.72941V9.13721Z" fill="#9C824A"/>
<path d="M11.6167 10.3756L12.0379 11.0039L10.5282 11.9566L10.1091 11.3282L11.6167 10.3756Z" fill="white"/>
<path d="M11.8982 10.3371L12.1881 10.7709L10.2696 11.9829L9.97974 11.5472L11.8982 10.3371Z" fill="#9C824A"/>
<path d="M8.38438 12.2241L8.79727 12.8564L7.2771 13.7929L6.86421 13.1585L8.38438 12.2241Z" fill="white"/>
<path d="M8.64301 12.1876L8.92869 12.6254L6.99773 13.8151L6.712 13.3773L8.64301 12.1876Z" fill="#9C824A"/>
<path d="M9.84826 13.0855H9.07671V14.8346H9.84826V13.0855Z" fill="white"/>
<path d="M9.72941 12.8362H9.19771V15.0576H9.72941V12.8362Z" fill="#9C824A"/>
<path d="M8.7139 12.899C8.8182 12.9841 8.93283 13.0612 9.07673 13.1199L9.07256 14.6806C8.34479 14.5894 7.79429 14.2408 7.37722 13.7442L8.71602 12.899" fill="#EF0107"/>
<path d="M8.7139 12.899C8.8182 12.9841 8.93283 13.0612 9.07673 13.1199L9.07256 14.6806C8.34479 14.5894 7.79429 14.2408 7.37722 13.7442L8.71602 12.899" stroke="#EF0107" stroke-width="0.0535051" stroke-miterlimit="282"/>
<path d="M10.2174 12.9051C10.111 12.9882 9.99837 13.0672 9.85453 13.124L9.85659 14.6847C10.5844 14.5935 11.1349 14.2449 11.552 13.7483L10.2153 12.9052" fill="#DB0007"/>
<path d="M10.2174 12.9051C10.111 12.9882 9.99837 13.0672 9.85453 13.124L9.85659 14.6847C10.5844 14.5935 11.1349 14.2449 11.552 13.7483L10.2153 12.9052" stroke="#DB0007" stroke-width="0.0535051" stroke-miterlimit="282"/>
<path d="M10.5823 12.2504L12.1754 12.0639C12.1879 12.451 12.092 12.7915 11.9564 13.1179L10.578 12.2504" fill="#DB0007"/>
<path d="M10.5844 12.2444C10.5906 12.22 10.5885 12.1978 10.599 12.1268L12.1714 11.9282C12.1776 11.9992 12.1734 12.0255 12.1714 12.0579L10.5844 12.2444Z" fill="white" stroke="white" stroke-width="0.0535051" stroke-miterlimit="282"/>
<path d="M12.9117 10.9574H14.9741C14.9094 11.1945 14.8468 11.4357 14.5506 11.5431C14.0773 11.7155 13.0952 11.8816 13.0952 11.8816C13.0764 11.6201 13.0159 11.2654 12.9117 10.9574Z" fill="white"/>
<path d="M11.4749 9.13115L16.8633 9.1372L16.6735 11.0505L12.993 11.237C12.7948 10.3817 12.1254 9.5649 11.4749 9.13115Z" fill="white"/>
<path d="M11.6667 9.26691L18.5461 9.27296L18.2833 10.8317L12.9449 11.0871C12.7343 10.3128 12.2527 9.74729 11.6667 9.26691Z" fill="#9C824A"/>
<path d="M12.9117 10.9574H14.8113C14.7488 11.1681 14.7049 11.3607 14.4256 11.4559C13.9814 11.61 13.0868 11.7316 13.0868 11.7316C13.0493 11.4783 12.995 11.2208 12.9117 10.9574Z" fill="#9C824A"/>
<path d="M10.8263 6.35235C10.8263 6.4375 10.8076 6.67059 10.7972 6.73542H11.8648C11.8001 6.4597 11.7709 6.07669 11.7626 5.78078C11.7626 5.80104 11.7439 5.18688 11.7439 5.18688C11.7439 5.14431 11.7626 5.07947 11.7897 5.05921C11.8273 5.01664 11.8648 5.01664 11.9107 5.01664C11.9566 4.99638 12.04 4.99638 12.0504 5.16463L12.0775 5.80104C12.0879 6.09895 12.0879 6.50234 12.0504 6.73542H13.0785C13.0701 6.65027 13.0409 6.43745 13.0326 6.37461C13.1619 6.65027 13.4413 6.7982 13.8125 6.7982C14.0335 6.7982 14.2024 6.71505 14.3317 6.62995C14.3317 6.65021 14.386 6.73542 14.386 6.73542H16.2961C16.2127 6.4597 16.1584 6.07669 16.1293 5.78078L15.8602 3.70124L14.8781 3.53099C14.9616 3.80665 15.0178 4.20998 15.0532 4.48564L15.2033 5.82335C15.2305 6.05643 15.2493 6.31183 15.2493 6.58743V6.60769L15.2117 6.52254C15.1366 6.3523 15.1012 6.14153 15.072 5.82329L15.0365 5.39765C14.9802 4.71866 14.6007 4.42269 13.7645 4.42269C13.6269 4.42269 13.2744 4.44295 13.0597 4.50784L13.116 5.26992L13.3391 5.14425C13.5247 5.03684 13.6624 4.99427 13.8291 4.99427C13.9606 4.99427 14.0439 5.0369 14.0815 5.12199C13.9231 5.14425 13.7478 5.18683 13.5518 5.26992C13.2557 5.39759 13.0701 5.5901 12.9867 5.80092V5.78066L12.9575 5.07936C12.9409 4.63346 12.6427 4.33754 12.188 4.33754C11.9858 4.33754 11.8001 4.40037 11.6333 4.50778C11.6229 4.48547 11.6146 4.46515 11.6041 4.44289L11.5666 4.35774L10.7137 4.31516C10.7512 4.46515 10.8076 4.8888 10.8159 5.03678C10.77 4.82596 10.649 4.59288 10.4259 4.42263C10.2508 4.31522 10.0276 4.25239 9.79617 4.25239C9.48123 4.25239 9.15594 4.38006 8.94324 4.59288C8.72014 4.80364 8.60956 5.10162 8.59916 5.44011C8.51578 5.35496 8.40526 5.27186 8.27593 5.22934L7.88596 5.03678H7.86721C7.77549 4.99415 7.76503 4.97389 7.76503 4.95363C7.77549 4.91105 7.86721 4.86848 7.98819 4.86848C8.15501 4.86848 8.38651 4.95363 8.57207 5.05904L8.59081 4.38006C8.45109 4.31516 8.25719 4.27464 7.97774 4.27464C7.82967 4.27464 7.55233 4.2949 7.31042 4.42257C7.24573 4.46515 7.18944 4.50773 7.13527 4.5503L7.14361 4.35768C6.92051 4.31716 6.68066 4.31716 6.38452 4.59282C6.37412 4.5705 6.35532 4.46509 6.33658 4.42257L5.41908 4.46515C5.48371 4.71855 5.49411 5.0793 5.47537 5.39754L5.45662 5.73803V5.7806C5.44616 5.95085 5.43788 6.14136 5.41908 6.3116C5.34398 6.07647 5.26266 5.75829 5.19591 5.50495L4.74136 3.51056L3.44429 3.70107C3.45263 3.72133 3.47138 3.78622 3.48184 3.849C3.49024 3.93415 3.49024 4.1044 3.36926 4.46515C3.15655 5.03678 2.86042 5.90827 2.57268 6.52237C2.53513 6.60752 2.4601 6.73519 2.4601 6.73519H3.47144C3.49024 6.5872 3.55487 6.33186 3.61951 6.1413C3.75923 6.1413 4.12 6.1413 4.28676 6.11898C4.3243 6.26897 4.36185 6.45948 4.37231 6.58715L4.389 6.73513H6.41173C6.36584 6.4169 6.38458 5.99325 6.40133 5.75817C6.42007 5.48252 6.47636 5.29201 6.59734 5.1866C6.68906 5.07919 6.79124 5.05893 6.86633 5.05893C6.85593 5.43994 7.10618 5.61024 7.32929 5.7156L7.72755 5.9081C7.86727 5.99325 7.86727 6.01352 7.86727 6.05609C7.85893 6.11893 7.74629 6.14124 7.64417 6.14124C7.43147 6.14124 7.14367 6.01352 6.82879 5.67508L6.81005 6.56483C7.06029 6.6925 7.37518 6.75534 7.65463 6.75534C8.11758 6.75534 8.60967 6.54451 8.739 6.14119C8.97045 6.56477 9.42505 6.75534 9.87132 6.75534C10.2695 6.75568 10.5656 6.62995 10.8263 6.35235ZM3.86141 5.4828C3.9177 5.33487 3.96353 5.20714 4.04697 4.97406C4.10326 5.20714 4.13034 5.35513 4.15749 5.46254C4.04697 5.4828 3.99068 5.4828 3.86141 5.4828ZM9.53757 5.24972C9.53757 4.9538 9.6481 4.82613 9.75868 4.82613C9.79623 4.82613 9.8796 4.80382 9.91709 4.9538C9.93583 5.01664 9.94418 5.05921 9.94418 5.07947C9.94418 5.16463 9.89835 5.18688 9.84206 5.18688V5.20714C9.84206 5.20714 9.68564 5.24972 9.53757 5.31455C9.53757 5.2923 9.53757 5.27203 9.53757 5.24972ZM10.5948 5.86587C10.3987 6.03412 10.2591 6.14153 10.0276 6.14153C9.84206 6.11921 9.73147 6.0138 9.66684 5.86587C9.8608 5.80104 10.6115 5.52538 10.8262 5.44023C10.8262 5.61047 10.8346 5.80098 10.8346 5.80098V6.16179L10.5948 5.86587ZM14.0522 6.16185C13.8771 6.16185 13.8395 6.03412 13.8312 5.95102C13.8395 5.86587 13.8666 5.7382 14.146 5.65311C14.1544 5.75852 14.1647 5.84361 14.1647 5.84361V5.92871C14.1731 5.99354 14.1731 6.05638 14.1814 6.11921C14.1461 6.14153 14.1002 6.14153 14.0522 6.16185Z" fill="#9C824A"/>
<path d="M8.43239 4.48565C8.34067 4.46539 8.20095 4.42282 7.97784 4.42282C7.80269 4.42282 7.57118 4.46539 7.39391 4.55054C7.18955 4.67822 7.04148 4.84646 7.03314 5.03902C7.01439 5.33494 7.17286 5.46261 7.40431 5.56803C7.56072 5.65318 7.71085 5.73827 7.80263 5.78085C7.92355 5.84368 8.03407 5.90852 8.02573 6.05651C8.01533 6.20449 7.8756 6.3119 7.64416 6.3119C7.4502 6.3119 7.17286 6.18423 6.97685 6.01393L6.9685 6.45983C7.13532 6.54499 7.40431 6.5875 7.65456 6.5875C8.07996 6.5875 8.60961 6.397 8.61795 5.92878C8.62835 5.56803 8.36776 5.4403 8.21135 5.3572C8.05288 5.29237 7.89435 5.20727 7.82143 5.18696C7.74634 5.14438 7.59827 5.10186 7.60873 4.93156C7.62541 4.78363 7.80269 4.71874 7.98824 4.71874C8.14466 4.71874 8.30313 4.76131 8.42405 4.82615" fill="white"/>
<path d="M4.6225 3.70126L3.63825 3.82893C3.65705 3.95666 3.61951 4.21001 3.51733 4.50792C3.31508 5.0795 2.9814 6.03409 2.72069 6.5874H3.33383C3.36926 6.3949 3.41515 6.22665 3.50898 5.99356L4.4182 5.97125C4.45363 6.1415 4.52038 6.41715 4.52872 6.5874H5.3545C5.25232 6.35232 5.12306 5.86584 5.03968 5.52535L4.6225 3.70126ZM3.63825 5.63081L4.08451 4.38025L4.35357 5.61055" fill="white"/>
<path d="M6.97695 4.48567L6.95821 4.91132C6.81014 4.88906 6.62459 4.93158 6.47652 5.07957C6.34719 5.20724 6.26381 5.3978 6.24507 5.73829C6.22627 6.01395 6.21792 6.33218 6.23461 6.58752H5.54015C5.58604 6.33218 5.60485 6.03621 5.61313 5.75861L5.63187 5.42011C5.65062 5.14446 5.65062 4.8688 5.60479 4.61346L6.21787 4.5932C6.24501 4.67835 6.26375 4.82628 6.25335 4.97421C6.52235 4.57077 6.783 4.48567 6.97695 4.48567Z" fill="white"/>
<path d="M15.7226 3.82896L15.0908 3.72155C15.1555 3.99926 15.1742 4.18977 15.2117 4.46537L15.3599 5.80108C15.389 6.07674 15.4162 6.33214 15.4078 6.58748H16.0939C16.0271 6.33214 16 6.07674 15.9729 5.80108" fill="white"/>
<path d="M12.8928 6.58747C12.8573 6.33213 12.8385 6.07673 12.8281 5.80107L12.801 5.10182C12.7822 4.71876 12.5591 4.50799 12.1879 4.50799C11.9857 4.50799 11.7437 4.57083 11.5394 4.82617C11.5311 4.76133 11.5019 4.59308 11.4644 4.50799L10.9097 4.48567C10.9555 4.74107 10.9743 4.99441 10.9826 5.27007L10.9931 5.80107C11.0014 6.07673 10.9931 6.33213 10.9743 6.58747H11.6687C11.6332 6.33213 11.6145 6.07673 11.604 5.80107L11.5853 5.20724C11.577 4.99441 11.7438 4.84643 11.9106 4.84643C12.1045 4.84643 12.1984 4.9741 12.2068 5.16466L12.2359 5.80107C12.2443 6.07673 12.2443 6.33213 12.2255 6.58747" fill="white"/>
<path d="M15.0636 6.58746C14.9803 6.37464 14.9344 6.11929 14.9156 5.84364L14.878 5.41999C14.8404 4.91125 14.6195 4.57076 13.7644 4.57076C13.6164 4.57076 13.4037 4.59307 13.2286 4.63359L13.2557 5.01666C13.4308 4.91125 13.6081 4.82616 13.8312 4.82616C14.0626 4.82616 14.2566 4.93157 14.2754 5.24974C14.0522 5.27206 13.8479 5.31258 13.6164 5.41999C13.3579 5.5254 13.0888 5.73822 13.1159 6.07666C13.143 6.45973 13.4412 6.62998 13.8124 6.62998C14.1002 6.62998 14.2941 6.50231 14.4047 6.37464C14.4234 6.45973 14.4526 6.52257 14.4797 6.58746H15.0636ZM14.0522 6.3118C13.8478 6.3118 13.6811 6.20439 13.6727 5.97131C13.6727 5.73822 13.8208 5.54772 14.2941 5.48283L14.3213 5.84364C14.3317 5.97131 14.3317 6.05646 14.3504 6.16187C14.2838 6.24697 14.1732 6.28954 14.0522 6.3118Z" fill="white"/>
<path d="M10.3341 4.55054C10.1757 4.44313 9.99009 4.40056 9.79619 4.40056C9.34158 4.40056 8.73891 4.71879 8.75765 5.52545C8.76599 6.35242 9.41662 6.60776 9.87122 6.60776C10.2695 6.60776 10.5114 6.45977 10.7053 6.26927L10.5656 6.07671C10.4634 6.16186 10.2966 6.28953 10.0276 6.28953C9.73978 6.26927 9.55628 6.07671 9.4541 5.78079L10.7136 5.33488C10.6761 4.93161 10.5281 4.69853 10.3341 4.55054ZM9.89831 5.33494L9.39781 5.52545C9.38741 5.44035 9.37907 5.3552 9.37907 5.24979C9.37907 4.76131 9.65641 4.67622 9.75018 4.67622C9.89831 4.65595 10.0276 4.74105 10.0755 4.9113C10.1298 5.10186 10.111 5.2721 9.89831 5.33494Z" fill="white"/>
<path d="M6.93095 10.8601L7.35424 10.2338L8.85985 11.1904L8.4365 11.8187L6.93095 10.8601Z" fill="white"/>
<path d="M6.79124 10.6452L7.08321 10.2114L8.99542 11.4295L8.70345 11.8633L6.79124 10.6452Z" fill="#9C824A"/>
<path d="M10.1445 12.8544L10.5678 12.2261L12.0733 13.1848L11.6501 13.8131L10.1445 12.8544Z" fill="white"/>
<path d="M10.0047 12.6396L10.2966 12.2059L12.2089 13.424L11.9169 13.8557L10.0047 12.6396Z" fill="#9C824A"/>
</g>
<defs>
<clipPath id="clip0_5_664">
<rect width="18.4681" height="21.0714" fill="white" transform="scale(1.0288)"/>
</clipPath>
</defs>
</svg>
