<svg width="17" height="22" viewBox="0 0 17 22" fill="none" xmlns="http://www.w3.org/2000/svg">
<g clip-path="url(#clip0_5_721)">
<path d="M16.6259 1.03487C16.5994 1.02866 12.8835 0.00160189 8.53804 0C8.5253 0 8.51276 0.000533965 8.49997 0.000533965C8.48713 0.000533965 8.47464 0 8.46189 0C4.11645 0.00160189 0.400628 1.02866 0.374146 1.03487C0.152896 1.09574 0 1.29224 0 1.51612V13.0429L0.00939361 13.1359C0.0195867 13.2117 1.16466 18.899 8.29226 21.9381C8.35791 21.9659 8.42862 21.9799 8.49932 21.9799C8.49957 21.9799 8.49977 21.9797 8.50007 21.9797C8.50032 21.9797 8.50052 21.9799 8.50077 21.9799C8.57147 21.9799 8.64212 21.9659 8.70783 21.9381C15.8354 18.899 16.9805 13.2116 16.9907 13.1359L17.0001 13.0429V1.51612C17 1.29224 16.8471 1.09574 16.6259 1.03487Z" fill="white"/>
<path d="M16.5434 1.3136C16.5323 1.31079 12.7829 0.297126 8.50006 0.290233C4.21717 0.297126 0.467769 1.31088 0.456676 1.3136C0.36284 1.33865 0.298534 1.42107 0.298534 1.51568V13.0429L0.302081 13.0822C0.306328 13.1135 1.40983 18.6878 8.41306 21.6727C8.4407 21.6844 8.47043 21.6904 8.50006 21.6904C8.52964 21.6904 8.55937 21.6844 8.587 21.6727C15.5902 18.6878 16.6937 13.1135 16.698 13.0822L16.7015 13.0429V1.51568C16.7015 1.42107 16.6372 1.33865 16.5434 1.3136Z" fill="black"/>
<path d="M8.49998 0.71092C6.73633 0.712959 5.06536 0.889798 3.71343 1.09416V18.0446C4.84701 19.192 6.39391 20.3394 8.49998 21.2503C10.606 20.3394 12.1529 19.192 13.2865 18.0446V1.09411C11.9345 0.889749 10.2636 0.712959 8.49998 0.71092Z" fill="white"/>
<path d="M6.15828 16.4019C5.49838 15.7613 5.19519 14.9993 5.19559 14.236C5.19559 13.3258 5.62359 12.4161 6.36904 11.6924C6.95354 11.1248 7.65406 10.7473 8.38152 10.6097L7.36451 9.62214C7.09225 9.88635 6.04216 10.9043 5.65073 11.2846H5.65547L5.49578 11.4379L5.43952 11.491C5.40215 11.5218 5.34493 11.5502 5.27978 11.5493C5.20598 11.5539 5.12828 11.5151 5.07842 11.4597L4.52109 10.9124C4.46583 10.8653 4.42326 10.7918 4.42801 10.7181C4.42681 10.6543 4.45679 10.5987 4.49466 10.5558L8.35559 6.80645L7.50521 5.98147C7.23345 6.2453 6.18286 7.26362 5.79118 7.64433H5.79498L5.63614 7.79705L5.57942 7.85059C5.543 7.88015 5.48629 7.91049 5.41938 7.90938C5.34543 7.91399 5.26909 7.87472 5.21867 7.81952L4.66065 7.27197C4.60654 7.22483 4.56357 7.15236 4.56781 7.07794C4.56661 7.01387 4.59664 6.95834 4.63492 6.91533L8.94898 2.72628C9.03742 2.6374 9.16199 2.5823 9.29875 2.5823C9.4344 2.58162 9.55572 2.6358 9.64146 2.72259L12.5122 5.51173C12.5438 5.54847 12.5734 5.60401 12.5722 5.6674C12.5769 5.73861 12.5375 5.8141 12.4812 5.86259L12.454 5.88876H12.4529C12.4366 5.90346 12.4144 5.92507 12.3876 5.95045C12.333 6.00302 12.2605 6.07307 12.1879 6.1436C12.0428 6.28389 11.8986 6.42389 11.8982 6.42389L11.8325 6.48684L9.40872 4.13143L8.30712 5.20251L12.3714 9.15142C12.4036 9.18841 12.4331 9.24443 12.4319 9.30729C12.4366 9.3787 12.3971 9.45379 12.3404 9.50292L11.6933 10.1277L9.26887 7.77234L8.16672 8.84255L10.1679 10.7867C10.538 10.9405 10.8928 11.172 11.2168 11.4875C11.8415 12.1014 12.1958 12.8406 12.1963 13.577C12.1963 14.1104 12.0091 14.6397 11.6123 15.1085L11.5475 15.1852L10.6017 14.2656L10.6381 14.2059C10.8147 13.9153 10.9177 13.617 10.9172 13.3221C10.9167 12.9697 10.7742 12.6163 10.4149 12.2664C10.0285 11.8919 9.60808 11.7413 9.17953 11.7403C8.53002 11.7392 7.85503 12.1004 7.32304 12.6184C6.78985 13.1348 6.4185 13.7912 6.4197 14.4225C6.42025 14.8388 6.57575 15.2475 6.96074 15.622C7.28711 15.9386 7.64992 16.0734 8.02131 16.0739C8.44388 16.0739 8.88083 15.8948 9.26852 15.5841L9.33302 15.5331L10.2647 16.4382L10.1917 16.5014C9.59654 17.0143 8.90406 17.2775 8.21273 17.2775C7.48323 17.2775 6.75807 16.9847 6.15828 16.4019Z" fill="black"/>
<path d="M8.77033 10.7335L8.58581 10.7576C7.84037 10.857 7.10666 11.2286 6.49958 11.8189C5.78292 12.5141 5.37954 13.3809 5.37954 14.236C5.38024 14.9533 5.661 15.6646 6.28807 16.2752C6.85858 16.8284 7.53387 17.0981 8.21271 17.0986C8.8277 17.0986 9.44787 16.8756 9.99575 16.4295L9.32021 15.7728C8.92318 16.073 8.47319 16.2522 8.02129 16.2527C7.60273 16.2532 7.18621 16.0954 6.8308 15.7485C6.41439 15.3456 6.23466 14.8834 6.23566 14.4225C6.23661 13.7222 6.63748 13.0318 7.19311 12.4922C7.74878 11.9523 8.4592 11.5627 9.17961 11.5615C9.65373 11.5611 10.1297 11.7353 10.545 12.1397C10.9319 12.5147 11.1022 12.9204 11.1013 13.3222C11.1013 13.6361 10.9993 13.9438 10.8324 14.2363L11.5334 14.9175C11.861 14.4985 12.012 14.0407 12.012 13.577C12.0125 12.8974 11.6838 12.201 11.0865 11.6136C10.7738 11.3092 10.433 11.0889 10.0797 10.944L10.062 10.9368L7.90622 8.84266L9.26899 7.51964L11.6934 9.87476L12.2107 9.37628C12.2547 9.32672 12.2431 9.34667 12.2479 9.3074C12.2469 9.28949 12.246 9.28696 12.2353 9.27201L8.04653 5.20267L9.40885 3.87873L11.8335 6.23477C11.9739 6.09856 12.2967 5.78513 12.3516 5.73561C12.395 5.68717 12.3837 5.70668 12.3882 5.66741C12.3872 5.6495 12.3868 5.64697 12.3757 5.6311L9.51018 2.84774C9.45442 2.79264 9.38492 2.76167 9.29887 2.76094C9.21308 2.76094 9.13628 2.79517 9.08047 2.85138L4.77115 7.03538C4.75392 7.05742 4.75302 7.06082 4.75177 7.07785C4.75601 7.11387 4.74537 7.09504 4.79124 7.14562L5.34971 7.69371C5.40008 7.73715 5.38069 7.72609 5.41946 7.73065C5.4365 7.72958 5.44125 7.72861 5.45754 7.7174L5.49961 7.67696L5.50276 7.67327L5.50535 7.67022L5.51055 7.66517C5.5148 7.66104 5.51994 7.65551 5.52734 7.64818C5.54178 7.63439 5.56277 7.61395 5.589 7.58847C5.64196 7.53687 5.71731 7.46289 5.80815 7.37503C5.98967 7.19887 6.23141 6.96373 6.4734 6.72932C6.95652 6.26045 7.44039 5.79202 7.44039 5.79202L7.50489 5.7293L8.61589 6.80636L4.6311 10.6751C4.61476 10.6967 4.61321 10.7009 4.61196 10.7181C4.61666 10.7549 4.60512 10.7355 4.65144 10.7865L5.20946 11.3341C5.25932 11.3766 5.23993 11.3663 5.27991 11.3704C5.2976 11.3695 5.30139 11.3684 5.31723 11.3578L5.3626 11.314L5.36495 11.3112L5.37015 11.3057C5.37439 11.302 5.37959 11.2966 5.38693 11.2892C5.40138 11.2754 5.42236 11.255 5.44859 11.229C5.50156 11.1774 5.57686 11.1039 5.66769 11.0155C5.84922 10.8394 6.09101 10.6047 6.33299 10.3698C6.81611 9.90097 7.29988 9.43215 7.29988 9.43215L7.36444 9.36924L8.63857 10.606L8.57332 10.6693L8.63857 10.606L8.77033 10.7335Z" fill="#CC0000"/>
</g>
<defs>
<clipPath id="clip0_5_721">
<rect width="16.2973" height="21.0714" fill="white" transform="scale(1.04312)"/>
</clipPath>
</defs>
</svg>
