<svg width="19" height="22" viewBox="0 0 19 22" fill="none" xmlns="http://www.w3.org/2000/svg">
<path d="M9.50002 0.0698483C7.24873 0.0698483 3.09751 0.634917 0.983452 1.82756C-1.79992 11.4012 1.98545 17.9115 9.50002 21.6066C17.0146 17.9115 20.8 11.369 18.0166 1.82762C15.9004 0.634918 11.7513 0.0698483 9.50002 0.0698483Z" fill="#9C824A" stroke="#9C824A" stroke-width="0.13621" stroke-miterlimit="282"/>
<path d="M9.50006 0.685659C7.28831 0.685659 4.79798 0.960125 1.53642 2.25165C-0.89153 10.6084 1.92517 17.3064 9.50006 20.957C17.075 17.3064 19.8896 10.6084 17.4616 2.25165C14.2 0.960125 11.7118 0.685659 9.50006 0.685659Z" fill="#023474" stroke="#023474" stroke-width="0.13621" stroke-miterlimit="282"/>
<path d="M9.48966 0.6776C7.28827 0.6776 4.92475 0.9944 2.79194 1.77745C0.580183 10.334 2.21202 16.5819 9.50213 20.951L9.48966 0.6776ZM9.50213 20.951C16.7922 16.5819 18.422 10.334 16.2102 1.77745C14.0774 0.9944 11.7159 0.6776 9.51461 0.6776L9.50213 20.951Z" fill="white" stroke="white" stroke-width="0.13621" stroke-miterlimit="282"/>
<path d="M9.50208 0.675613C7.28821 0.675613 5.04734 1.00048 3.22638 1.61596C0.935603 10.5842 2.77525 16.6404 9.50413 20.7794L9.50208 0.675613Z" fill="#EF0107" stroke="#EF0107" stroke-width="0.13621" stroke-miterlimit="282"/>
<path d="M9.50624 0.675613C11.7201 0.675613 13.961 1.00048 15.784 1.61596C18.0748 10.5842 16.2351 16.6404 9.50419 20.7794L9.50624 0.675613Z" fill="#DB0007" stroke="#DB0007" stroke-width="0.13621" stroke-miterlimit="282"/>
<path d="M6.64183 14.2086C5.66484 14.8585 4.8874 15.0926 3.98521 15.3247L3.4406 14.5033C4.27005 14.0957 5.12855 13.5286 5.99331 12.7073C6.06606 13.5043 6.44848 14.0693 6.64183 14.2086Z" fill="white"/>
<path d="M6.50872 14.1744C5.58163 14.7918 4.29069 15.2217 2.81273 15.4316L2.51132 14.9877C3.77725 14.5274 4.99954 13.8414 5.94748 12.8768C6.09092 13.4942 6.30916 13.904 6.50872 14.1744Z" fill="#9C824A"/>
<path d="M4.03928 10.4026C4.03928 10.7477 3.75245 11.0262 3.39697 11.0262C3.0415 11.0262 2.75256 10.7477 2.75256 10.4026C2.75256 10.0575 3.0415 9.77906 3.39697 9.77906C3.75245 9.77906 4.03928 10.0575 4.03928 10.4026Z" fill="white"/>
<path d="M3.97053 9.17357V11.5266H5.88088C6.00558 10.7376 6.46707 9.90008 7.51265 9.17357H3.97053Z" fill="white"/>
<path d="M4.04757 11.5266C3.6214 11.5327 3.27014 11.014 3.26387 10.3642C3.25971 9.71438 3.60067 9.18164 4.02889 9.17357C4.03305 9.17357 4.03721 9.17357 4.04347 9.17357" fill="white"/>
<path d="M3.76897 10.4026C3.76897 10.669 3.56941 10.8829 3.32411 10.8829C3.07881 10.8829 2.87925 10.669 2.87925 10.4026C2.87925 10.1362 3.07881 9.92229 3.32411 9.92229C3.56941 9.92223 3.76897 10.1362 3.76897 10.4026Z" fill="#9C824A"/>
<path d="M4.02274 9.29676V11.4116H5.91856C6.06821 10.7094 6.43616 9.9627 7.35493 9.29676H4.02274Z" fill="#9C824A"/>
<path d="M4.09324 11.4116C3.69202 11.4197 3.3636 10.9516 3.35739 10.3683C3.35323 9.78512 3.67544 9.30477 4.0766 9.29676C4.08076 9.29676 4.08492 9.29676 4.08908 9.29676" fill="#9C824A"/>
<path d="M13.1274 12.0776C13.1274 14.0413 11.4894 15.6314 9.46681 15.6314C7.44629 15.6314 5.8062 14.0413 5.8062 12.0776C5.8062 10.1141 7.44629 8.52382 9.46681 8.52382C11.4894 8.52382 13.1274 10.1141 13.1274 12.0776Z" fill="white"/>
<path d="M12.9364 12.0776C12.9364 13.9382 11.3835 15.4456 9.46694 15.4456C7.55243 15.4456 5.99962 13.9382 5.99962 12.0776C5.99962 10.219 7.55243 8.70947 9.46694 8.70947C11.3835 8.70941 12.9364 10.2169 12.9364 12.0776Z" fill="#9C824A"/>
<path d="M12.3603 12.0776C12.3603 13.6295 11.0652 14.8868 9.46674 14.8868C7.87028 14.8868 6.57524 13.6295 6.57524 12.0776C6.57524 10.5257 7.87028 9.26841 9.46674 9.26841C11.0652 9.26841 12.3603 10.5257 12.3603 12.0776Z" fill="white"/>
<path d="M12.1691 12.0776C12.1691 13.5265 10.9592 14.699 9.46666 14.699C7.97623 14.699 6.76641 13.5265 6.76641 12.0776C6.76641 10.6286 7.97623 9.45616 9.46666 9.45616C10.9592 9.4561 12.1691 10.6286 12.1691 12.0776Z" fill="#9C824A"/>
<path d="M10.5935 12.0776C10.5956 12.681 10.0905 13.1714 9.46893 13.1734C8.84536 13.1734 8.34017 12.683 8.34017 12.0796V12.0776C8.34017 11.4741 8.84325 10.9838 9.46682 10.9838C10.0883 10.9818 10.5935 11.4722 10.5935 12.0756C10.5935 12.0776 10.5935 12.0776 10.5935 12.0776Z" fill="white"/>
<path d="M10.4604 12.0776C10.4604 12.6104 10.0176 13.0423 9.46886 13.0423C8.92009 13.0423 8.47524 12.6125 8.47313 12.0797V12.0776C8.47313 11.5449 8.91799 11.113 9.46675 11.113C10.0155 11.113 10.4604 11.5429 10.4604 12.0756V12.0776Z" fill="#9C824A"/>
<path d="M9.97824 12.0776C9.97824 12.35 9.74957 12.572 9.4669 12.5739C9.18628 12.5739 8.95761 12.352 8.95761 12.0776C8.95761 11.8032 9.18628 11.5832 9.4669 11.5812C9.74951 11.5812 9.97824 11.8032 9.97824 12.0776Z" fill="white"/>
<path d="M9.83683 12.078C9.83683 12.276 9.67259 12.4376 9.46683 12.4376C9.26311 12.4376 9.09682 12.278 9.09682 12.078C9.09682 11.8801 9.26311 11.7184 9.46683 11.7184C9.67048 11.7184 9.83683 11.878 9.83683 12.078Z" fill="#9C824A"/>
<path d="M9.84716 9.39558H9.07805V11.1371H9.84716V9.39558Z" fill="white"/>
<path d="M9.72875 9.14533H9.19873V11.3591H9.72875V9.14533Z" fill="#9C824A"/>
<path d="M11.6101 10.3783L12.03 11.0039L10.525 11.9525L10.1072 11.3269L11.6101 10.3783Z" fill="white"/>
<path d="M11.8906 10.34L12.1796 10.7719L10.2671 11.9787L9.97816 11.5448L11.8906 10.34Z" fill="#9C824A"/>
<path d="M8.38783 12.2188L8.79942 12.8485L7.28403 13.7808L6.87244 13.1492L8.38783 12.2188Z" fill="white"/>
<path d="M8.64577 12.1825L8.93055 12.6184L7.00568 13.803L6.72084 13.3671L8.64577 12.1825Z" fill="#9C824A"/>
<path d="M9.84716 13.0766H9.07805V14.818H9.84716V13.0766Z" fill="white"/>
<path d="M9.72875 12.8283H9.19873V15.0401H9.72875V12.8283Z" fill="#9C824A"/>
<path d="M8.71631 12.8909C8.82028 12.9756 8.93456 13.0523 9.078 13.1108L9.07384 14.6647C8.34836 14.5739 7.79959 14.2268 7.38385 13.7324L8.71842 12.8909" fill="#EF0107"/>
<path d="M8.71631 12.8909C8.82028 12.9756 8.93456 13.0523 9.078 13.1108L9.07384 14.6647C8.34836 14.5739 7.79959 14.2268 7.38385 13.7324L8.71842 12.8909" stroke="#EF0107" stroke-width="0.0535051" stroke-miterlimit="282"/>
<path d="M10.2152 12.8969C10.1091 12.9797 9.99686 13.0584 9.85347 13.1149L9.85552 14.6688C10.581 14.578 11.1298 14.2309 11.5456 13.7365L10.2131 12.897" fill="#DB0007"/>
<path d="M10.2152 12.8969C10.1091 12.9797 9.99686 13.0584 9.85347 13.1149L9.85552 14.6688C10.581 14.578 11.1298 14.2309 11.5456 13.7365L10.2131 12.897" stroke="#DB0007" stroke-width="0.0535051" stroke-miterlimit="282"/>
<path d="M10.5789 12.2451L12.167 12.0594C12.1795 12.4448 12.0839 12.7839 11.9487 13.1088L10.5747 12.2451" fill="#DB0007"/>
<path d="M10.581 12.2394C10.5872 12.2152 10.5851 12.193 10.5955 12.1223L12.1629 11.9243C12.1692 11.995 12.165 12.0212 12.1629 12.0535L10.581 12.2394Z" fill="white" stroke="white" stroke-width="0.0535051" stroke-miterlimit="282"/>
<path d="M12.901 10.9576H14.9569C14.8924 11.1937 14.83 11.4338 14.5348 11.5408C14.0629 11.7124 13.0839 11.8778 13.0839 11.8778C13.0652 11.6175 13.0049 11.2642 12.901 10.9576Z" fill="white"/>
<path d="M11.4687 9.1393L16.8401 9.14533L16.6509 11.0503L12.982 11.236C12.7845 10.3844 12.1171 9.57117 11.4687 9.1393Z" fill="white"/>
<path d="M11.6598 9.27449L18.5176 9.28051L18.2556 10.8325L12.9341 11.0868C12.7241 10.3158 12.244 9.75278 11.6598 9.27449Z" fill="#9C824A"/>
<path d="M12.901 10.9576H14.7946C14.7323 11.1677 14.6886 11.3596 14.4101 11.4546C13.9674 11.6081 13.0756 11.7294 13.0756 11.7294C13.0382 11.4769 12.9841 11.2202 12.901 10.9576Z" fill="#9C824A"/>
<path d="M10.8221 6.37253C10.8221 6.45731 10.8034 6.68938 10.7931 6.75394H11.8574C11.7929 6.47941 11.7637 6.09806 11.7555 5.80342C11.7555 5.8236 11.7368 5.2121 11.7368 5.2121C11.7368 5.16971 11.7555 5.10516 11.7825 5.08498C11.82 5.04259 11.8574 5.04259 11.9031 5.04259C11.9488 5.02242 12.032 5.02242 12.0424 5.18994L12.0694 5.8236C12.0798 6.12022 12.0798 6.52186 12.0424 6.75394H13.0672C13.0588 6.66915 13.0298 6.45725 13.0215 6.39469C13.1503 6.66915 13.4289 6.81644 13.7989 6.81644C14.0193 6.81644 14.1876 6.73365 14.3165 6.64892C14.3165 6.6691 14.3706 6.75394 14.3706 6.75394H16.2747C16.1915 6.47941 16.1375 6.09806 16.1084 5.80342L15.8402 3.73289L14.8611 3.56338C14.9443 3.83784 15.0005 4.23942 15.0357 4.51389L15.1854 5.84581C15.2124 6.07789 15.2312 6.33218 15.2312 6.60659V6.62676L15.1937 6.54198C15.1189 6.37247 15.0835 6.16262 15.0544 5.84576L15.0191 5.42196C14.963 4.74591 14.5847 4.45121 13.7511 4.45121C13.6139 4.45121 13.2626 4.47139 13.0485 4.536L13.1046 5.29478L13.327 5.16965C13.5121 5.06271 13.6493 5.02032 13.8155 5.02032C13.9465 5.02032 14.0296 5.06276 14.067 5.14749C13.9091 5.16965 13.7344 5.21204 13.5391 5.29478C13.2439 5.4219 13.0588 5.61357 12.9757 5.82348V5.80331L12.9466 5.10504C12.93 4.66107 12.6328 4.36643 12.1795 4.36643C11.9779 4.36643 11.7929 4.42899 11.6266 4.53594C11.6163 4.51372 11.6079 4.49349 11.5975 4.47133L11.5601 4.38655L10.7098 4.34415C10.7473 4.49349 10.8034 4.9153 10.8118 5.06265C10.766 4.85274 10.6454 4.62066 10.423 4.45116C10.2484 4.34421 10.026 4.28165 9.79523 4.28165C9.48129 4.28165 9.15703 4.40876 8.94499 4.62066C8.72259 4.83052 8.61236 5.1272 8.60199 5.46423C8.51888 5.37945 8.4087 5.29671 8.27979 5.25438L7.89104 5.06265H7.87235C7.78092 5.0202 7.7705 5.00003 7.7705 4.97986C7.78092 4.93746 7.87236 4.89507 7.99296 4.89507C8.15924 4.89507 8.39002 4.97986 8.57499 5.08481L8.59368 4.40876C8.45439 4.34415 8.2611 4.30381 7.98253 4.30381C7.83493 4.30381 7.55846 4.32398 7.31732 4.4511C7.25283 4.49349 7.19672 4.53588 7.14272 4.57827L7.15103 4.38649C6.92863 4.34614 6.68954 4.34614 6.39433 4.62061C6.38397 4.59839 6.36522 4.49343 6.34654 4.4511L5.43193 4.49349C5.49636 4.74579 5.50673 5.10499 5.48804 5.42184L5.46936 5.76086V5.80325C5.45893 5.97276 5.45067 6.16244 5.43193 6.33195C5.35707 6.09783 5.27601 5.78103 5.20947 5.52879L4.75635 3.54303L3.46336 3.73272C3.47168 3.75289 3.49036 3.8175 3.50079 3.88001C3.50917 3.96479 3.50917 4.1343 3.38857 4.49349C3.17653 5.06265 2.88133 5.93037 2.5945 6.54181C2.55707 6.62659 2.48227 6.75371 2.48227 6.75371H3.49042C3.50917 6.60636 3.5736 6.35213 3.63803 6.16239C3.77731 6.16239 4.13695 6.16239 4.30318 6.14017C4.3406 6.28951 4.37803 6.47919 4.38846 6.60631L4.40509 6.75365H6.42145C6.37571 6.4368 6.39439 6.01498 6.41109 5.78092C6.42977 5.50645 6.48588 5.31677 6.60648 5.21182C6.69792 5.10487 6.79977 5.0847 6.87463 5.0847C6.86426 5.46406 7.11372 5.63363 7.33612 5.73853L7.73313 5.9302C7.87241 6.01498 7.87241 6.03516 7.87241 6.07755C7.8641 6.14011 7.75181 6.16233 7.65001 6.16233C7.43798 6.16233 7.15109 6.03516 6.8372 5.69818L6.81852 6.58409C7.06798 6.7112 7.38187 6.77377 7.66044 6.77377C8.12193 6.77377 8.61248 6.56386 8.7414 6.16227C8.97211 6.58403 9.42529 6.77377 9.87015 6.77377C10.2671 6.77411 10.5622 6.64892 10.8221 6.37253ZM3.87917 5.50674C3.93528 5.35945 3.98097 5.23227 4.06414 5.0002C4.12025 5.23227 4.14726 5.37962 4.17432 5.48657C4.06414 5.50674 4.00803 5.50674 3.87917 5.50674ZM9.53746 5.27467C9.53746 4.98003 9.64763 4.85291 9.75787 4.85291C9.79529 4.85291 9.87841 4.83069 9.91578 4.98003C9.93446 5.04259 9.94278 5.08498 9.94278 5.10516C9.94278 5.18994 9.89709 5.2121 9.84098 5.2121V5.23227C9.84098 5.23227 9.68506 5.27467 9.53746 5.33922C9.53746 5.31706 9.53746 5.29688 9.53746 5.27467ZM10.5914 5.88815C10.3959 6.05567 10.2567 6.16261 10.026 6.16261C9.84098 6.1404 9.73075 6.03544 9.66632 5.88815C9.85966 5.8236 10.608 5.54913 10.8221 5.46435C10.8221 5.63386 10.8304 5.82354 10.8304 5.82354V6.18279L10.5914 5.88815ZM14.0379 6.18284C13.8633 6.18284 13.8258 6.05567 13.8175 5.97293C13.8258 5.88815 13.8528 5.76103 14.1314 5.67631C14.1397 5.78126 14.15 5.86599 14.15 5.86599V5.95071C14.1584 6.01527 14.1584 6.07783 14.1667 6.1404C14.1314 6.16261 14.0857 6.16262 14.0379 6.18284Z" fill="#9C824A"/>
<path d="M8.43576 4.51391C8.34432 4.49373 8.20504 4.45134 7.98264 4.45134C7.80803 4.45134 7.57726 4.49373 7.40054 4.57852C7.19683 4.70564 7.04922 4.87316 7.04091 5.06488C7.02222 5.35952 7.18019 5.48664 7.41091 5.5916C7.56683 5.67638 7.71648 5.76111 7.80797 5.8035C7.92852 5.86606 8.03869 5.93062 8.03037 6.07796C8.02001 6.22531 7.88072 6.33226 7.65 6.33226C7.45666 6.33226 7.18019 6.20514 6.9848 6.03557L6.97648 6.47955C7.14276 6.56433 7.41091 6.60666 7.66037 6.60666C8.08444 6.60666 8.61241 6.41698 8.62073 5.95079C8.63109 5.5916 8.37132 5.46442 8.2154 5.38168C8.05743 5.31713 7.89941 5.2324 7.82672 5.21217C7.75186 5.16978 7.60426 5.12745 7.61468 4.95788C7.63132 4.81059 7.80803 4.74598 7.993 4.74598C8.14892 4.74598 8.30689 4.78837 8.42744 4.85293" fill="white"/>
<path d="M4.63786 3.73291L3.65671 3.86003C3.67545 3.9872 3.63803 4.23945 3.53617 4.53607C3.33456 5.10518 3.00193 6.05563 2.74204 6.60655H3.35325C3.38857 6.41488 3.43431 6.24736 3.52785 6.01529L4.4342 5.99307C4.46952 6.16258 4.53606 6.43705 4.54438 6.60655H5.36756C5.2657 6.37249 5.13684 5.88811 5.05373 5.5491L4.63786 3.73291ZM3.65671 5.65411L4.10157 4.40896L4.36977 5.63394" fill="white"/>
<path d="M6.98484 4.5139L6.96615 4.9377C6.81855 4.91554 6.63358 4.95787 6.48598 5.10522C6.35706 5.23234 6.27394 5.42208 6.25526 5.7611C6.23652 6.03556 6.2282 6.35242 6.24483 6.60666H5.55256C5.59831 6.35242 5.61705 6.05772 5.62531 5.78133L5.644 5.4443C5.66268 5.16983 5.66268 4.89537 5.61699 4.64113L6.22814 4.62096C6.2552 4.70574 6.27388 4.85303 6.26352 5.00032C6.53166 4.59863 6.79149 4.5139 6.98484 4.5139Z" fill="white"/>
<path d="M15.703 3.86004L15.0732 3.75309C15.1376 4.02961 15.1563 4.21929 15.1938 4.4937L15.3414 5.82363C15.3705 6.0981 15.3975 6.35239 15.3892 6.60663H16.0731C16.0066 6.35239 15.9796 6.0981 15.9525 5.82363" fill="white"/>
<path d="M12.8822 6.6066C12.8468 6.35236 12.8281 6.09807 12.8177 5.8236L12.7907 5.12738C12.772 4.74597 12.5496 4.53612 12.1795 4.53612C11.9779 4.53612 11.7367 4.59868 11.533 4.85292C11.5247 4.78836 11.4956 4.62084 11.4582 4.53612L10.9053 4.5139C10.951 4.76819 10.9698 5.02044 10.978 5.2949L10.9884 5.8236C10.9968 6.09807 10.9884 6.35236 10.9698 6.6066H11.662C11.6266 6.35236 11.6079 6.09807 11.5975 5.8236L11.5788 5.23234C11.5705 5.02044 11.7368 4.87309 11.9031 4.87309C12.0964 4.87309 12.1899 5.00021 12.1983 5.18995L12.2274 5.8236C12.2357 6.09807 12.2357 6.35236 12.217 6.6066" fill="white"/>
<path d="M15.0461 6.60663C14.963 6.39473 14.9172 6.14049 14.8985 5.86602L14.861 5.44421C14.8236 4.93767 14.6034 4.59865 13.751 4.59865C13.6034 4.59865 13.3914 4.62087 13.2168 4.66122L13.2438 5.04263C13.4184 4.93767 13.5951 4.85295 13.8175 4.85295C14.0483 4.85295 14.2416 4.9579 14.2604 5.2747C14.0379 5.29692 13.8342 5.33727 13.6035 5.44421C13.3457 5.54917 13.0775 5.76107 13.1045 6.09804C13.1315 6.47945 13.4288 6.64896 13.7989 6.64896C14.0857 6.64896 14.279 6.52184 14.3892 6.39473C14.4079 6.47945 14.437 6.54202 14.464 6.60663H15.0461ZM14.0379 6.33216C13.8341 6.33216 13.668 6.22522 13.6596 5.99314C13.6596 5.76107 13.8072 5.57139 14.279 5.50678L14.3061 5.86602C14.3165 5.99314 14.3165 6.07793 14.3352 6.18288C14.2687 6.26761 14.1585 6.31 14.0379 6.33216Z" fill="white"/>
<path d="M10.3315 4.5785C10.1736 4.47155 9.98855 4.42916 9.79526 4.42916C9.34208 4.42916 8.7413 4.74602 8.75999 5.54918C8.7683 6.37258 9.41688 6.62682 9.87006 6.62682C10.2671 6.62682 10.5083 6.47947 10.7015 6.28979L10.5622 6.09806C10.4604 6.18284 10.2941 6.30996 10.0259 6.30996C9.73903 6.28979 9.55611 6.09806 9.45425 5.80342L10.7098 5.35944C10.6724 4.95792 10.5248 4.72584 10.3315 4.5785ZM9.89706 5.3595L9.39814 5.54918C9.38777 5.46446 9.37945 5.37967 9.37945 5.27472C9.37945 4.78835 9.65591 4.70363 9.7494 4.70363C9.89706 4.68345 10.0259 4.76818 10.0737 4.93769C10.1278 5.12743 10.1091 5.29694 9.89706 5.3595Z" fill="white"/>
<path d="M6.93905 10.8607L7.361 10.2371L8.86187 11.1896L8.43985 11.8152L6.93905 10.8607Z" fill="white"/>
<path d="M6.79983 10.6468L7.09088 10.2149L8.99707 11.4277L8.70602 11.8597L6.79983 10.6468Z" fill="#9C824A"/>
<path d="M10.1424 12.8465L10.5644 12.2208L12.0652 13.1754L11.6432 13.801L10.1424 12.8465Z" fill="white"/>
<path d="M10.0031 12.6325L10.2941 12.2007L12.2004 13.4135L11.9093 13.8434L10.0031 12.6325Z" fill="#9C824A"/>
</svg>
